<?xml version="1.0" standalone="no"?>
<!DOCTYPE svg PUBLIC "-//W3C//DTD SVG 20010904//EN"
 "http://www.w3.org/TR/2001/REC-SVG-20010904/DTD/svg10.dtd">
<svg version="1.0" xmlns="http://www.w3.org/2000/svg"
 width="200.000000pt" height="200.000000pt" viewBox="0 0 200.000000 200.000000"
 preserveAspectRatio="xMidYMid meet">

<g transform="translate(0.000000,200.000000) scale(0.100000,-0.100000)"
fill="#000000" stroke="none">
<path d="M1322 1794 c6 -9 -15 -33 -29 -35 -25 -4 -45 -16 -35 -23 6 -3 13 -2
17 4 3 5 12 10 18 10 7 0 6 -4 -3 -10 -13 -9 -13 -10 0 -10 13 0 13 -2 1 -9
-12 -8 -9 -11 12 -16 15 -4 27 -11 27 -16 0 -5 -6 -6 -12 -4 -10 4 -13 -18
-13 -89 0 -52 3 -92 8 -89 12 7 8 -4 -17 -57 -13 -28 -20 -50 -15 -50 5 0 9
-5 9 -11 0 -6 -6 -9 -14 -6 -10 4 -13 -1 -10 -16 2 -12 2 -17 -1 -11 -4 7 -17
1 -34 -15 -23 -21 -27 -29 -17 -40 9 -12 8 -13 -7 -8 -12 5 -16 3 -11 -5 5 -8
2 -9 -9 -5 -11 4 -31 -7 -59 -33 -22 -22 -45 -40 -50 -40 -5 0 -7 -4 -4 -9 4
-5 0 -11 -6 -13 -7 -3 -13 -13 -13 -23 0 -10 -7 -20 -15 -22 -12 -4 -12 -3 -1
5 9 7 10 12 2 16 -6 4 -11 3 -11 -2 0 -7 -24 -8 -49 -3 -2 1 2 7 8 15 9 11 9
16 0 22 -8 4 -9 3 -5 -4 4 -7 1 -12 -8 -12 -8 0 -18 -5 -22 -12 -5 -7 -3 -8 6
-3 8 5 11 3 9 -4 -3 -7 -7 -11 -11 -9 -8 4 -48 -33 -48 -45 0 -6 3 -7 6 -4 4
4 20 -5 37 -19 28 -23 31 -24 48 -8 10 9 16 21 12 27 -4 6 0 8 10 4 9 -3 19
-1 23 5 4 7 3 8 -4 4 -7 -4 -12 -2 -12 3 0 10 5 12 25 11 6 0 25 15 59 45 13
12 34 19 49 18 15 -1 27 2 27 7 0 5 13 7 29 4 16 -3 38 -1 51 6 18 10 24 9 36
-7 7 -10 11 -24 9 -30 -3 -7 -8 -20 -11 -28 -3 -8 -1 -15 4 -15 6 0 13 8 15
18 3 9 4 1 3 -18 -2 -28 4 -42 31 -70 26 -27 33 -31 33 -17 0 10 -5 15 -11 12
-6 -4 -6 1 2 12 10 16 7 26 -17 62 -24 37 -26 45 -15 63 7 11 8 17 2 13 -6 -3
-11 -1 -11 4 0 15 23 14 38 -1 13 -13 54 -19 46 -7 -2 4 0 10 6 14 5 3 10 -1
10 -10 0 -11 7 -14 25 -11 25 5 34 -7 15 -19 -5 -3 -10 -11 -10 -16 0 -6 4 -8
9 -5 5 3 8 -5 7 -18 -1 -18 -4 -22 -13 -14 -9 7 -13 7 -13 0 0 -6 4 -13 10
-17 5 -3 0 -15 -11 -26 -11 -11 -17 -24 -14 -28 3 -5 -3 -8 -12 -6 -10 1 -17
9 -15 19 3 18 -13 22 -24 4 -4 -6 -3 -8 3 -5 6 4 9 -3 8 -18 -2 -14 3 -26 12
-30 14 -5 14 -8 -2 -25 -9 -10 -14 -23 -11 -29 4 -5 1 -13 -5 -17 -8 -5 -10
-2 -5 7 8 15 4 11 -58 -64 -21 -26 -46 -47 -54 -47 -12 0 -13 -3 -4 -12 9 -9
18 -6 41 16 16 16 35 26 43 23 11 -4 10 -6 -1 -6 -19 -1 -81 -58 -73 -67 4 -4
1 -4 -6 0 -7 4 -10 12 -7 17 10 16 -29 9 -65 -12 -28 -16 -30 -19 -10 -14 14
2 19 2 13 -1 -7 -3 -13 -12 -13 -20 0 -18 -44 -28 -67 -15 -15 9 -12 10 13 5
17 -3 34 -2 38 4 12 19 -22 20 -80 2 -58 -17 -157 -20 -236 -6 -25 5 -28 4
-13 -3 l20 -10 -20 0 c-25 -1 -59 18 -35 20 8 0 2 5 -13 9 -17 5 -39 5 -54 -1
-16 -6 -31 -6 -41 1 -9 5 -12 10 -5 10 6 0 9 9 6 21 -4 13 -12 19 -23 16 -11
-3 -17 1 -16 10 0 9 -7 20 -18 27 -10 6 -36 27 -57 47 -27 26 -40 34 -48 26
-16 -16 -14 -24 11 -47 20 -19 24 -19 34 -5 8 10 14 12 19 6 3 -6 2 -11 -3
-11 -6 0 -12 -7 -15 -14 -4 -11 -1 -13 10 -9 12 5 15 2 10 -9 -4 -12 0 -15 18
-13 13 1 24 -1 23 -4 0 -3 0 -14 1 -25 1 -16 3 -17 18 -5 15 12 16 12 10 -4
-5 -14 4 -22 46 -41 39 -18 55 -21 66 -12 11 8 13 8 8 -1 -5 -8 0 -14 15 -17
115 -21 134 -23 145 -15 7 7 13 5 15 -3 4 -11 11 -11 40 0 20 7 42 10 51 7 9
-4 24 3 37 17 13 13 20 18 16 11 -9 -16 49 -9 70 8 8 6 14 8 14 4 0 -12 69 33
126 82 43 37 51 49 42 60 -9 11 -13 12 -20 1 -8 -11 -9 -11 -6 0 2 8 7 12 10
10 4 -2 24 13 45 32 l38 35 -34 -37 c-41 -45 -33 -51 10 -9 32 32 36 49 17 71
-7 8 -9 11 -4 7 5 -4 15 -2 23 5 11 9 12 7 8 -8 -4 -11 0 -8 8 6 8 14 16 30
17 35 1 6 6 18 12 29 8 14 7 17 -3 11 -9 -6 -11 -3 -6 9 4 10 7 20 7 22 0 3 4
3 8 0 5 -3 9 1 9 9 0 8 -4 12 -9 9 -13 -8 -9 13 5 28 16 17 19 58 4 58 -8 0
-7 4 2 9 11 7 4 11 -25 17 -48 9 -254 11 -248 3 2 -4 -5 -9 -17 -12 -17 -4
-18 -3 -8 9 9 12 8 14 -7 11 -27 -4 -45 -17 -39 -28 4 -5 0 -10 -7 -11 -7 0
-17 -2 -23 -3 -5 -2 -16 -3 -23 -4 -8 -1 -10 -6 -6 -13 4 -7 4 -10 -1 -6 -4 4
-13 1 -19 -7 -8 -10 -16 -12 -26 -5 -13 8 -13 10 2 10 9 0 23 9 31 20 8 11 17
17 22 12 4 -4 5 2 2 13 -7 20 -7 20 8 1 15 -20 15 -20 30 0 17 23 19 34 4 34
-5 0 -7 5 -3 11 4 8 9 8 13 1 9 -15 46 -8 46 8 0 7 6 15 14 18 9 3 11 0 5 -9
-6 -12 -5 -12 8 -1 9 8 14 20 11 28 -4 11 -9 12 -19 3 -9 -8 -14 -8 -14 -1 0
17 20 25 34 13 10 -8 16 -8 25 2 6 8 8 16 5 20 -3 3 4 15 15 26 13 13 18 27
14 37 -5 13 -3 15 8 9 8 -4 11 -5 7 0 -4 4 -3 16 3 26 6 13 6 19 -1 19 -5 0
-10 -8 -11 -17 0 -10 -3 -13 -5 -6 -3 6 2 23 11 37 14 20 16 48 14 155 -2 72
-7 131 -12 131 -4 0 -6 4 -2 9 3 5 0 13 -6 17 -7 4 -10 3 -7 -2z m8 -54 c0 -5
-2 -10 -4 -10 -3 0 -8 5 -11 10 -3 6 -1 10 4 10 6 0 11 -4 11 -10z m-170 -490
c0 -5 -5 -10 -11 -10 -5 0 -7 5 -4 10 3 6 8 10 11 10 2 0 4 -4 4 -10z m95 -30
c-3 -5 -12 -10 -18 -10 -7 0 -6 4 3 10 19 12 23 12 15 0z m245 -4 c0 -2 -7 -6
-15 -10 -8 -3 -15 -1 -15 4 0 6 7 10 15 10 8 0 15 -2 15 -4z m7 -38 c-3 -8 -6
-5 -6 6 -1 11 2 17 5 13 3 -3 4 -12 1 -19z m-486 -43 c0 -5 -5 -11 -12 -14 -7
-2 -9 1 -4 9 5 9 4 11 -3 6 -8 -4 -9 -18 -6 -34 l7 -27 -21 25 c-13 16 -17 29
-11 36 11 14 49 13 50 -1z m-71 -15 c0 -5 -5 -10 -11 -10 -5 0 -7 5 -4 10 3 6
8 10 11 10 2 0 4 -4 4 -10z m406 -5 c-1 -8 -6 -18 -11 -22 -4 -4 -5 -2 -1 5 4
6 2 12 -4 12 -6 0 -8 5 -5 10 9 15 24 12 21 -5z m-381 -25 c3 -5 1 -10 -4 -10
-6 0 -11 5 -11 10 0 6 2 10 4 10 3 0 8 -4 11 -10z m505 -34 c0 -23 -16 -27
-17 -5 -1 10 2 19 8 19 5 0 9 -6 9 -14z m-30 -38 c0 -4 -4 -8 -9 -8 -6 0 -12
4 -15 8 -3 5 1 9 9 9 8 0 15 -4 15 -9z m-860 -122 c0 -11 -19 -15 -25 -6 -3 5
1 10 9 10 9 0 16 -2 16 -4z m48 -61 c-3 -3 -9 2 -12 12 -6 14 -5 15 5 6 7 -7
10 -15 7 -18z m617 -55 c-3 -5 -15 -15 -25 -20 -16 -8 -18 -8 -14 4 3 8 13 17
22 19 10 3 18 5 20 6 2 0 0 -3 -3 -9z m-460 -20 c4 -6 -1 -7 -11 -3 -12 4 -15
3 -10 -5 4 -7 3 -12 -3 -12 -16 0 -22 18 -9 23 20 8 26 8 33 -3z m115 -30 c8
-5 11 -10 5 -10 -5 0 -17 5 -25 10 -8 5 -10 10 -5 10 6 0 17 -5 25 -10z m57 4
c-3 -3 -12 -4 -19 -1 -8 3 -5 6 6 6 11 1 17 -2 13 -5z m73 -8 c0 -2 -9 -6 -20
-9 -11 -3 -18 -1 -14 4 5 9 34 13 34 5z m-85 -24 c-3 -3 -11 0 -18 7 -9 10 -8
11 6 5 10 -3 15 -9 12 -12z"/>
<path d="M620 1779 c0 -6 -3 -8 -7 -6 -11 7 -10 -125 1 -142 6 -10 6 -12 -2
-7 -7 4 -12 1 -12 -7 0 -8 -15 -32 -32 -52 -18 -20 -33 -40 -33 -43 0 -4 -10
-17 -22 -29 -27 -27 -31 -55 -7 -46 14 5 16 2 10 -23 l-6 -29 14 24 c12 22 12
28 -3 50 -9 15 -11 22 -3 18 7 -5 12 -3 12 3 0 6 5 8 10 5 6 -3 10 -11 10 -16
0 -6 -4 -7 -10 -4 -5 3 -10 1 -10 -4 0 -16 16 -13 31 5 10 13 10 17 -2 26 -11
8 -11 9 3 5 19 -7 45 18 28 26 -6 3 -5 4 2 3 7 -1 13 -16 14 -32 2 -44 3 -46
17 -38 9 6 9 5 0 -7 -14 -17 8 -88 31 -101 9 -5 16 -15 16 -22 0 -18 35 -48
45 -39 4 5 5 3 2 -3 -6 -11 46 -70 56 -62 4 3 19 -10 79 -65 11 -10 27 -16 35
-13 13 5 14 4 4 -8 -17 -20 2 -28 25 -11 11 8 14 14 7 15 -7 0 -13 5 -13 11 0
5 5 7 10 4 6 -3 10 -4 10 -2 0 11 -80 58 -89 52 -7 -4 -8 0 -5 10 5 13 1 15
-20 11 -14 -2 -29 0 -32 6 -4 6 -2 8 4 4 6 -3 13 -2 16 3 3 5 -9 22 -27 38
-56 50 -108 121 -113 155 -3 18 -8 67 -13 109 -5 42 -12 82 -16 89 -6 9 -4 11
5 5 10 -6 12 1 6 34 -5 33 -3 43 10 48 8 3 20 1 27 -6 16 -16 27 -13 21 7 -4
13 -2 12 7 -3 7 -11 15 -29 16 -40 4 -20 4 -20 -11 0 -9 11 -16 15 -16 10 0
-18 22 -34 39 -28 9 4 13 3 9 -2 -4 -4 0 -13 8 -20 19 -13 114 1 114 17 0 5 9
4 19 -2 23 -12 34 -13 27 -2 -9 15 134 4 203 -17 34 -10 50 -10 73 0 16 6 25
15 21 19 -17 15 -115 41 -133 35 -10 -3 -21 -1 -25 4 -7 12 -155 13 -155 1 0
-5 -15 -7 -32 -5 -26 4 -30 2 -18 -6 12 -9 11 -10 -7 -6 -13 3 -23 1 -23 -4 0
-17 -18 -9 -69 31 -28 22 -51 37 -51 33 0 -3 -10 3 -22 14 -28 24 -58 36 -58
22z m387 -95 c-3 -3 -12 -4 -19 -1 -8 3 -5 6 6 6 11 1 17 -2 13 -5z m40 -9 c0
-8 -4 -12 -9 -9 -5 3 -6 10 -3 15 9 13 12 11 12 -6z m78 5 c3 -5 1 -10 -4 -10
-6 0 -11 5 -11 10 0 6 2 10 4 10 3 0 8 -4 11 -10z m-321 -18 c2 -4 -7 -8 -22
-9 -24 -2 -24 -1 -7 7 11 5 21 9 22 9 1 1 4 -3 7 -7z m374 -7 c26 5 26 5 4 -5
-26 -11 -42 -6 -41 13 0 9 2 9 6 0 3 -8 15 -11 31 -8z m-541 -74 c-2 -24 -6
-28 -27 -26 -15 2 -35 -6 -50 -18 -19 -17 -18 -14 4 11 22 23 32 29 38 20 6
-10 10 -10 18 2 5 8 10 21 10 28 0 6 2 12 5 12 2 0 3 -13 2 -29z m-2 -60 c-3
-5 -1 -12 5 -16 5 -3 10 -12 10 -18 0 -7 -5 -4 -11 6 -6 10 -15 14 -22 10 -7
-4 -6 0 2 10 14 18 26 23 16 8z m15 -96 c-7 -9 -15 -13 -17 -11 -6 6 20 36 26
30 2 -2 -2 -10 -9 -19z m10 -25 c0 -5 -5 -10 -11 -10 -5 0 -7 5 -4 10 3 6 8
10 11 10 2 0 4 -4 4 -10z m24 -26 c3 -8 2 -12 -4 -9 -6 3 -10 10 -10 16 0 14
7 11 14 -7z m9 -39 c-3 -9 -8 -14 -10 -11 -3 3 -2 9 2 15 9 16 15 13 8 -4z
m47 -39 c0 -6 -5 -3 -11 7 -6 9 -14 15 -20 12 -5 -3 -6 1 -2 11 6 16 7 15 20
-2 7 -10 13 -23 13 -28z m34 -19 c10 -10 10 -15 1 -24 -15 -14 -36 3 -28 23 6
17 11 17 27 1z m91 -90 c0 -7 9 -11 20 -9 16 2 17 1 6 -7 -10 -6 -21 -4 -37 7
-14 11 -18 19 -11 24 13 8 22 2 22 -15z"/>
<path d="M1220 1718 c0 -4 -6 -8 -14 -8 -26 0 -26 -28 1 -35 34 -8 42 2 12 14
-13 5 -18 10 -11 10 7 1 23 -4 35 -11 21 -10 21 -10 7 7 -14 17 -13 17 5 7 17
-9 21 -7 21 7 0 12 -8 17 -28 17 -15 0 -28 -3 -28 -8z"/>
<path d="M651 1703 c0 -11 3 -13 6 -5 4 10 8 10 21 0 13 -11 14 -11 10 2 -7
23 -38 25 -37 3z"/>
<path d="M464 1407 c-9 -16 -13 -31 -10 -34 3 -3 0 -15 -6 -27 -6 -11 -12 -45
-13 -74 -1 -29 -5 -55 -7 -58 -3 -3 -1 -24 5 -47 5 -23 11 -51 12 -62 8 -61
18 -83 34 -77 14 5 14 4 1 -13 -8 -10 -10 -16 -3 -12 6 4 14 3 18 -3 3 -5 1
-10 -6 -10 -8 0 -7 -5 3 -17 8 -10 18 -26 21 -35 8 -24 24 -23 37 2 8 16 7 25
-4 42 l-15 22 -10 -25 c-5 -13 -10 -17 -10 -9 0 8 3 22 9 30 6 9 5 19 -2 28
-6 7 -13 25 -14 40 -2 15 -10 32 -19 38 -12 9 -13 13 -3 16 9 4 10 9 2 19 -11
15 -11 133 1 161 4 9 4 21 1 26 -3 5 1 18 9 28 16 21 20 38 7 30 -4 -2 -14 -1
-22 4 -12 7 -12 12 -2 22 9 9 12 9 12 -2 0 -13 2 -13 10 0 14 21 12 27 -6 27
-8 0 -22 -14 -30 -30z m10 -33 c3 -8 2 -12 -4 -9 -6 3 -10 10 -10 16 0 14 7
11 14 -7z m-24 -71 c-11 -17 -11 -17 -6 0 3 10 6 24 7 30 0 9 2 9 5 0 3 -7 0
-20 -6 -30z m6 -124 c-9 -19 -15 -29 -16 -22 0 15 22 64 27 60 2 -2 -3 -19
-11 -38z m84 -233 c0 -3 -4 -8 -10 -11 -5 -3 -10 -1 -10 4 0 6 5 11 10 11 6 0
10 -2 10 -4z"/>
<path d="M850 1406 c0 -8 -6 -17 -12 -20 -7 -3 -2 -3 11 0 18 5 22 3 16 -7 -5
-8 -4 -10 0 -6 15 13 14 35 -1 41 -8 3 -14 -1 -14 -8z"/>
<path d="M1090 1406 c0 -8 -6 -17 -12 -20 -7 -3 -2 -3 11 0 18 5 22 3 16 -7
-5 -8 -4 -10 0 -6 15 13 14 35 -1 41 -8 3 -14 -1 -14 -8z"/>
<path d="M1290 1186 c0 -9 5 -16 10 -16 6 0 10 4 10 9 0 6 -4 13 -10 16 -5 3
-10 -1 -10 -9z"/>
<path d="M723 784 c0 -16 13 -19 21 -5 3 5 0 11 -7 14 -8 3 -14 -1 -14 -9z"/>
</g>
</svg>
